<?xml version="1.0" encoding="utf-8"?>
<!-- Generator: Adobe Illustrator 17.0.0, SVG Export Plug-In . SVG Version: 6.00 Build 0)  -->
<svg version="1.1" id="Layer_1" xmlns="http://www.w3.org/2000/svg" xmlns:xlink="http://www.w3.org/1999/xlink" x="0px" y="0px"
	 width="28.005px" height="28.005px" viewBox="0 0 28.005 28.005" enable-background="new 0 0 28.005 28.005" xml:space="preserve">
<g display="none">
	<path display="inline" fill="#231F20" d="M14.002,26.527c-6.728,0-12.201-5.618-12.201-12.525c0-6.906,5.474-12.525,12.201-12.525
		s12.201,5.619,12.201,12.525C26.203,20.909,20.729,26.527,14.002,26.527z M14.002,3.973c-5.351,0-9.704,4.499-9.704,10.028
		c0,5.53,4.353,10.028,9.704,10.028s9.704-4.499,9.704-10.028S19.352,3.973,14.002,3.973z"/>
	<g display="inline">
		<path fill="#231F20" d="M13.461,9.499c-0.716,0.175-1.332,0.433-1.873,0.782c-1.315,0.874-1.59,1.831-1.207,2.447
			c0.325,0.524,0.599,0.649,1.506,0.233l2.479-1.157c2.697-1.266,4.329-0.974,5.585,1.048c1.223,1.973,1.041,4.719-2.705,7.191
			c-1.298,0.848-3.263,1.756-4.677,2.088l-1.939-3.113l2.596-1.713l0.799,1.297c0.583-0.142,1.522-0.499,2.139-0.907
			c0.599-0.39,1.989-1.572,1.265-2.737c-0.383-0.616-0.957-0.691-2.331-0.05l-2.671,1.215c-2.056,0.94-3.521,0.408-4.511-1.182
			c-1.698-2.739,0.266-5.285,2.489-6.75c1.156-0.757,2.712-1.515,4.644-2.014l1.698,2.738l-2.597,1.714L13.461,9.499z"/>
	</g>
</g>
<g>
	<path fill="#231F20" d="M18.266,17.492c0,0.435,0.009,0.875,0.029,1.319c0.018,0.444,0.046,0.846,0.084,1.205h1.901v1.419h-4.534
		l-0.289-2.695h-0.142c-0.095,0.379-0.269,0.748-0.524,1.107c-0.256,0.359-0.577,0.681-0.965,0.964
		c-0.388,0.284-0.846,0.511-1.376,0.681c-0.53,0.171-1.116,0.255-1.759,0.255s-1.234-0.095-1.773-0.283
		c-0.539-0.189-1.007-0.455-1.404-0.795c-0.397-0.339-0.705-0.751-0.922-1.234c-0.218-0.481-0.326-1.025-0.326-1.631
		c0-0.926,0.193-1.692,0.581-2.297c0.387-0.605,0.96-1.083,1.716-1.433c0.756-0.35,1.702-0.6,2.837-0.751s2.458-0.237,3.971-0.256
		c0.038-0.299,0.058-0.585,0.058-0.856c0-0.271,0-0.537,0-0.799c0-1.16-0.199-2.044-0.597-2.652
		c-0.397-0.608-1.106-0.912-2.127-0.912c-0.379,0-0.785,0.018-1.219,0.056c-0.436,0.037-0.833,0.148-1.192,0.334v2.561H7.741V7.648
		c0.684-0.359,1.492-0.681,2.424-0.964c0.931-0.284,2.025-0.425,3.28-0.425c1.084,0,1.953,0.137,2.61,0.411
		c0.656,0.275,1.159,0.634,1.511,1.078c0.352,0.444,0.579,0.946,0.684,1.503c0.105,0.558,0.157,1.112,0.157,1.66
		c0,1.191-0.024,2.331-0.07,3.418C18.29,15.416,18.266,16.47,18.266,17.492z M11.997,19.846c0.454,0,0.86-0.072,1.221-0.214
		c0.359-0.141,0.675-0.321,0.95-0.539c0.274-0.217,0.51-0.458,0.709-0.723s0.365-0.521,0.496-0.766v-3.376
		c-1.229,0-2.227,0.081-2.992,0.241c-0.766,0.161-1.367,0.374-1.801,0.639c-0.436,0.264-0.734,0.581-0.894,0.95
		c-0.16,0.368-0.241,0.762-0.241,1.177c0,0.851,0.227,1.498,0.68,1.943C10.579,19.624,11.202,19.846,11.997,19.846z"/>
	<g>
		<rect x="14.239" y="24.395" fill="#231F20" width="1.863" height="1.863"/>
		<rect x="10.512" y="24.395" fill="#231F20" width="1.863" height="1.863"/>
		<rect x="6.786" y="24.395" fill="#231F20" width="1.863" height="1.863"/>
		<rect x="17.966" y="24.395" fill="#231F20" width="1.863" height="1.863"/>
	</g>
	<path fill="#231F20" d="M21.381,6.786c-1.301,0-2.358-1.058-2.358-2.358c0-1.3,1.057-2.358,2.358-2.358
		c1.3,0,2.357,1.058,2.357,2.358C23.738,5.728,22.681,6.786,21.381,6.786z M21.381,3.252c-0.649,0-1.176,0.527-1.176,1.176
		c0,0.648,0.527,1.176,1.176,1.176c0.648,0,1.175-0.527,1.175-1.176C22.556,3.78,22.029,3.252,21.381,3.252z"/>
</g>
<g display="none">
	<path display="inline" fill="#231F20" d="M14.188,20.182h-1.649l-0.667,2.853H9.89l0.667-2.853H9.186l0.407-1.797h1.39l0.463-1.963
		h-1.334l0.408-1.797h1.352l0.648-2.667h1.963l-0.63,2.667h1.649l0.648-2.667h1.963l-0.63,2.667h1.334l-0.463,1.797h-1.297
		l-0.463,1.963h1.278l-0.444,1.797h-1.26l-0.667,2.853h-1.982L14.188,20.182z M12.965,18.385h1.648l0.463-1.963h-1.648
		L12.965,18.385z"/>
</g>
<path display="none" fill="#231F20" d="M23.523,8.87l-6-6L17.23,2.577H3.816v24h20V9.163L23.523,8.87z M20.402,8.577h-2.586V5.991
	L20.402,8.577z M5.816,24.577v-20h10v5c0,0.552,0.447,1,1,1h5v14H5.816z"/>
</svg>
