<?xml version="1.0" encoding="utf-8"?>
<!-- Generator: Adobe Illustrator 17.0.0, SVG Export Plug-In . SVG Version: 6.00 Build 0)  -->
<svg version="1.1" id="Layer_1" xmlns="http://www.w3.org/2000/svg" xmlns:xlink="http://www.w3.org/1999/xlink" x="0px" y="0px"
	 width="28.005px" height="28.005px" viewBox="0 0 28.005 28.005" enable-background="new 0 0 28.005 28.005" xml:space="preserve">
<g>
	<path fill="#231F20" d="M14.002,26.527c-6.728,0-12.201-5.618-12.201-12.525c0-6.906,5.474-12.525,12.201-12.525
		s12.201,5.619,12.201,12.525C26.203,20.909,20.729,26.527,14.002,26.527z M14.002,3.973c-5.351,0-9.704,4.499-9.704,10.028
		c0,5.53,4.353,10.028,9.704,10.028s9.704-4.499,9.704-10.028S19.352,3.973,14.002,3.973z"/>
	<g>
		<path fill="#231F20" d="M13.461,9.499c-0.716,0.175-1.332,0.433-1.873,0.782c-1.315,0.874-1.59,1.831-1.207,2.447
			c0.325,0.524,0.599,0.649,1.506,0.233l2.479-1.157c2.697-1.266,4.329-0.974,5.585,1.048c1.223,1.973,1.041,4.719-2.705,7.191
			c-1.298,0.848-3.263,1.756-4.677,2.088l-1.939-3.113l2.596-1.713l0.799,1.297c0.583-0.142,1.522-0.499,2.139-0.907
			c0.599-0.39,1.989-1.572,1.265-2.737c-0.383-0.616-0.957-0.691-2.331-0.05l-2.671,1.215c-2.056,0.94-3.521,0.408-4.511-1.182
			c-1.698-2.739,0.266-5.285,2.489-6.75c1.156-0.757,2.712-1.515,4.644-2.014l1.698,2.738l-2.597,1.714L13.461,9.499z"/>
	</g>
</g>
<g display="none">
	<polygon display="inline" fill="#231F20" points="12.738,18.577 15.265,18.577 16.01,15.577 13.484,15.577 	"/>
	<path display="inline" fill="#231F20" d="M18.464,7.577h5.71l-6.357-6.277v5.71C17.816,7.297,18.178,7.577,18.464,7.577z"/>
	<path display="inline" fill="#231F20" d="M16.816,8.049V1.577H4.967c-0.286,0-0.15-0.043-0.15,0.242v23.879
		c0,0.286-0.136,0.879,0.15,0.879h18.688c0.286,0,0.162-0.593,0.162-0.879V8.577h-6.391C17.139,8.577,16.816,8.335,16.816,8.049z
		 M19.884,13.577l-0.385,2H17.67l-0.747,3h1.757l-0.385,2h-1.732l-0.938,4h-1.66l0.939-4h-2.526l-0.938,4h-1.66l0.938-4H8.841
		l0.337-2h1.901l0.745-3h-1.78l0.337-2h1.805l0.914-3h1.66l-0.914,3h2.526l0.914-3h1.66l-0.915,3H19.884z"/>
</g>
<g display="none">
	<path display="inline" fill="#231F20" d="M18.266,17.927c0,0.435,0.009,0.875,0.029,1.319c0.018,0.444,0.046,0.846,0.084,1.205
		h1.901v1.419h-4.534l-0.289-2.695h-0.142c-0.095,0.379-0.269,0.748-0.524,1.107c-0.256,0.359-0.577,0.681-0.965,0.964
		c-0.388,0.284-0.846,0.511-1.376,0.681c-0.53,0.171-1.116,0.255-1.759,0.255s-1.234-0.095-1.773-0.283
		c-0.539-0.189-1.007-0.455-1.404-0.795c-0.397-0.339-0.705-0.751-0.922-1.234c-0.218-0.481-0.326-1.025-0.326-1.631
		c0-0.926,0.193-1.692,0.581-2.297c0.387-0.605,0.96-1.083,1.716-1.433c0.756-0.35,1.702-0.6,2.837-0.751s2.458-0.237,3.971-0.256
		c0.038-0.299,0.058-0.585,0.058-0.856c0-0.271,0-0.537,0-0.799c0-1.16-0.199-2.044-0.597-2.652
		c-0.397-0.608-1.106-0.912-2.127-0.912c-0.379,0-0.785,0.018-1.219,0.056c-0.436,0.037-0.833,0.148-1.192,0.334v2.561H7.741V8.084
		c0.684-0.359,1.492-0.681,2.424-0.964c0.931-0.284,2.025-0.425,3.28-0.425c1.084,0,1.953,0.137,2.61,0.411
		c0.656,0.275,1.159,0.634,1.511,1.078c0.352,0.444,0.579,0.946,0.684,1.503c0.105,0.558,0.157,1.112,0.157,1.66
		c0,1.191-0.024,2.331-0.07,3.418C18.29,15.852,18.266,16.906,18.266,17.927z M11.997,20.282c0.454,0,0.86-0.072,1.221-0.214
		c0.359-0.141,0.675-0.321,0.95-0.539c0.274-0.217,0.51-0.458,0.709-0.723c0.199-0.264,0.365-0.521,0.496-0.766v-3.376
		c-1.229,0-2.227,0.081-2.992,0.241c-0.766,0.161-1.367,0.374-1.801,0.639c-0.436,0.264-0.734,0.581-0.894,0.95
		c-0.16,0.368-0.241,0.762-0.241,1.177c0,0.851,0.227,1.498,0.68,1.943C10.579,20.059,11.202,20.282,11.997,20.282z"/>
	<g display="inline">
		<rect x="14.239" y="23.395" fill="#231F20" width="1.863" height="1.863"/>
		<rect x="10.512" y="23.395" fill="#231F20" width="1.863" height="1.863"/>
		<rect x="6.786" y="23.395" fill="#231F20" width="1.863" height="1.863"/>
		<rect x="17.966" y="23.395" fill="#231F20" width="1.863" height="1.863"/>
	</g>
	<path display="inline" fill="#231F20" d="M21.381,7.786c-1.301,0-2.358-1.058-2.358-2.358c0-1.3,1.057-2.358,2.358-2.358
		c1.3,0,2.357,1.058,2.357,2.358C23.738,6.728,22.681,7.786,21.381,7.786z M21.381,4.252c-0.649,0-1.176,0.527-1.176,1.176
		c0,0.648,0.527,1.176,1.176,1.176c0.648,0,1.175-0.527,1.175-1.176C22.556,4.78,22.029,4.252,21.381,4.252z"/>
</g>
</svg>
